<mxfile host="Electron" agent="Mozilla/5.0 (Windows NT 10.0; Win64; x64) AppleWebKit/537.36 (KHTML, like Gecko) draw.io/25.0.2 Chrome/128.0.6613.186 Electron/32.2.5 Safari/537.36" version="25.0.2">
  <diagram name="Página-1" id="Ogjw7mfiGQgQhLG7W4vd">
    <mxGraphModel dx="1434" dy="836" grid="1" gridSize="10" guides="1" tooltips="1" connect="1" arrows="1" fold="1" page="0" pageScale="1" pageWidth="827" pageHeight="1169" math="0" shadow="0">
      <root>
        <mxCell id="0" />
        <mxCell id="1" parent="0" />
        <mxCell id="NIhlScBV0QvWfO8qGJx1-2" value="Cadastro dos Clientes" style="rounded=0;whiteSpace=wrap;html=1;fillColor=none;" parent="1" vertex="1">
          <mxGeometry x="110" y="60" width="1240" height="20" as="geometry" />
        </mxCell>
        <mxCell id="NIhlScBV0QvWfO8qGJx1-3" value="" style="rounded=0;whiteSpace=wrap;html=1;fillColor=none;" parent="1" vertex="1">
          <mxGeometry x="110" y="80" width="1240" height="580" as="geometry" />
        </mxCell>
        <mxCell id="NIhlScBV0QvWfO8qGJx1-5" value="Clientes" style="rounded=0;whiteSpace=wrap;html=1;fillColor=none;rotation=-90;" parent="1" vertex="1">
          <mxGeometry x="-6.64" y="166.47" width="202.24" height="30" as="geometry" />
        </mxCell>
        <mxCell id="NIhlScBV0QvWfO8qGJx1-7" value="Sistema" style="rounded=0;whiteSpace=wrap;html=1;fillColor=none;rotation=-90;" parent="1" vertex="1">
          <mxGeometry x="-94.03" y="455.96" width="377.19" height="30" as="geometry" />
        </mxCell>
        <mxCell id="NIhlScBV0QvWfO8qGJx1-8" style="edgeStyle=orthogonalEdgeStyle;rounded=0;orthogonalLoop=1;jettySize=auto;html=1;exitX=0.5;exitY=1;exitDx=0;exitDy=0;" parent="1" edge="1">
          <mxGeometry relative="1" as="geometry">
            <mxPoint x="1075.94" y="685" as="sourcePoint" />
            <mxPoint x="1075.88" y="685" as="targetPoint" />
          </mxGeometry>
        </mxCell>
        <mxCell id="KtPQNXZRIDVFI4fc9xsd-14" style="edgeStyle=orthogonalEdgeStyle;rounded=0;orthogonalLoop=1;jettySize=auto;html=1;exitX=1;exitY=0.5;exitDx=0;exitDy=0;entryX=0;entryY=0.5;entryDx=0;entryDy=0;" edge="1" parent="1" source="NIhlScBV0QvWfO8qGJx1-12" target="NIhlScBV0QvWfO8qGJx1-57">
          <mxGeometry relative="1" as="geometry" />
        </mxCell>
        <mxCell id="NIhlScBV0QvWfO8qGJx1-12" value="Processamento dos dados" style="rounded=1;whiteSpace=wrap;html=1;fillColor=none;" parent="1" vertex="1">
          <mxGeometry x="414" y="480" width="120" height="60" as="geometry" />
        </mxCell>
        <mxCell id="NIhlScBV0QvWfO8qGJx1-23" value="" style="edgeStyle=orthogonalEdgeStyle;rounded=0;orthogonalLoop=1;jettySize=auto;html=1;" parent="1" source="NIhlScBV0QvWfO8qGJx1-16" target="NIhlScBV0QvWfO8qGJx1-21" edge="1">
          <mxGeometry relative="1" as="geometry" />
        </mxCell>
        <mxCell id="NIhlScBV0QvWfO8qGJx1-24" value="Sim" style="edgeLabel;html=1;align=center;verticalAlign=middle;resizable=0;points=[];" parent="NIhlScBV0QvWfO8qGJx1-23" vertex="1" connectable="0">
          <mxGeometry x="0.0441" relative="1" as="geometry">
            <mxPoint as="offset" />
          </mxGeometry>
        </mxCell>
        <mxCell id="NIhlScBV0QvWfO8qGJx1-16" value="Possui antecedentes criminais?" style="rhombus;whiteSpace=wrap;html=1;fillColor=none;" parent="1" vertex="1">
          <mxGeometry x="785" y="308.12" width="110" height="100" as="geometry" />
        </mxCell>
        <mxCell id="NIhlScBV0QvWfO8qGJx1-25" value="" style="edgeStyle=orthogonalEdgeStyle;rounded=0;orthogonalLoop=1;jettySize=auto;html=1;" parent="1" source="NIhlScBV0QvWfO8qGJx1-21" target="NIhlScBV0QvWfO8qGJx1-22" edge="1">
          <mxGeometry relative="1" as="geometry" />
        </mxCell>
        <mxCell id="NIhlScBV0QvWfO8qGJx1-21" value="Mensagem informando que o cadastro não poderá ser feito" style="rounded=1;whiteSpace=wrap;html=1;fillColor=none;" parent="1" vertex="1">
          <mxGeometry x="775" y="135" width="120" height="60" as="geometry" />
        </mxCell>
        <mxCell id="NIhlScBV0QvWfO8qGJx1-27" value="" style="edgeStyle=orthogonalEdgeStyle;rounded=0;orthogonalLoop=1;jettySize=auto;html=1;" parent="1" source="NIhlScBV0QvWfO8qGJx1-22" target="NIhlScBV0QvWfO8qGJx1-26" edge="1">
          <mxGeometry relative="1" as="geometry" />
        </mxCell>
        <mxCell id="NIhlScBV0QvWfO8qGJx1-22" value="&lt;font style=&quot;font-size: 10px;&quot;&gt;Armazenamento do cadastro do cliente no BD com os clientes inaptos para a plataforma&lt;/font&gt;" style="rounded=1;whiteSpace=wrap;html=1;fillColor=none;" parent="1" vertex="1">
          <mxGeometry x="906.88" y="485" width="120" height="60" as="geometry" />
        </mxCell>
        <mxCell id="NIhlScBV0QvWfO8qGJx1-26" value="Fim do cadastro" style="ellipse;whiteSpace=wrap;html=1;aspect=fixed;fillColor=none;" parent="1" vertex="1">
          <mxGeometry x="1076.88" y="470" width="90" height="90" as="geometry" />
        </mxCell>
        <mxCell id="NIhlScBV0QvWfO8qGJx1-46" value="" style="edgeStyle=orthogonalEdgeStyle;rounded=0;orthogonalLoop=1;jettySize=auto;html=1;" parent="1" source="NIhlScBV0QvWfO8qGJx1-40" target="NIhlScBV0QvWfO8qGJx1-45" edge="1">
          <mxGeometry relative="1" as="geometry" />
        </mxCell>
        <mxCell id="NIhlScBV0QvWfO8qGJx1-54" value="" style="edgeStyle=orthogonalEdgeStyle;rounded=0;orthogonalLoop=1;jettySize=auto;html=1;" parent="1" source="NIhlScBV0QvWfO8qGJx1-45" target="NIhlScBV0QvWfO8qGJx1-53" edge="1">
          <mxGeometry relative="1" as="geometry" />
        </mxCell>
        <mxCell id="NIhlScBV0QvWfO8qGJx1-45" value="Mensagem informando que o cadastro foi concluido" style="rounded=1;whiteSpace=wrap;html=1;fillColor=none;" parent="1" vertex="1">
          <mxGeometry x="1066.88" y="135" width="120" height="60" as="geometry" />
        </mxCell>
        <mxCell id="NIhlScBV0QvWfO8qGJx1-50" value="" style="endArrow=none;dashed=1;html=1;dashPattern=1 3;strokeWidth=2;rounded=0;exitX=0;exitY=0.345;exitDx=0;exitDy=0;entryX=0.999;entryY=0.345;entryDx=0;entryDy=0;entryPerimeter=0;exitPerimeter=0;" parent="1" source="NIhlScBV0QvWfO8qGJx1-3" target="NIhlScBV0QvWfO8qGJx1-3" edge="1">
          <mxGeometry width="50" height="50" relative="1" as="geometry">
            <mxPoint x="710" y="340" as="sourcePoint" />
            <mxPoint x="760" y="290" as="targetPoint" />
          </mxGeometry>
        </mxCell>
        <mxCell id="NIhlScBV0QvWfO8qGJx1-53" value="Fim do cadastro" style="ellipse;whiteSpace=wrap;html=1;aspect=fixed;fillColor=none;" parent="1" vertex="1">
          <mxGeometry x="1236.88" y="120.00000000000003" width="90" height="90" as="geometry" />
        </mxCell>
        <mxCell id="NIhlScBV0QvWfO8qGJx1-55" value="" style="edgeStyle=orthogonalEdgeStyle;rounded=0;orthogonalLoop=1;jettySize=auto;html=1;" parent="1" source="NIhlScBV0QvWfO8qGJx1-16" target="NIhlScBV0QvWfO8qGJx1-40" edge="1">
          <mxGeometry relative="1" as="geometry">
            <mxPoint x="894.88" y="358" as="sourcePoint" />
            <mxPoint x="1236.8800000000006" y="358.1199999999999" as="targetPoint" />
          </mxGeometry>
        </mxCell>
        <mxCell id="NIhlScBV0QvWfO8qGJx1-56" value="Não" style="edgeLabel;html=1;align=center;verticalAlign=middle;resizable=0;points=[];" parent="NIhlScBV0QvWfO8qGJx1-55" vertex="1" connectable="0">
          <mxGeometry x="-0.4411" y="-2" relative="1" as="geometry">
            <mxPoint as="offset" />
          </mxGeometry>
        </mxCell>
        <mxCell id="NIhlScBV0QvWfO8qGJx1-40" value="&lt;font style=&quot;font-size: 10px;&quot;&gt;Armazenamento do cadastro do cliente no BD com os clientes&lt;/font&gt;" style="rounded=1;whiteSpace=wrap;html=1;fillColor=none;" parent="1" vertex="1">
          <mxGeometry x="1066.88" y="328.12" width="120" height="60" as="geometry" />
        </mxCell>
        <mxCell id="NIhlScBV0QvWfO8qGJx1-59" style="edgeStyle=orthogonalEdgeStyle;rounded=0;orthogonalLoop=1;jettySize=auto;html=1;exitX=1;exitY=0.5;exitDx=0;exitDy=0;entryX=0;entryY=0.5;entryDx=0;entryDy=0;" parent="1" source="NIhlScBV0QvWfO8qGJx1-57" target="NIhlScBV0QvWfO8qGJx1-16" edge="1">
          <mxGeometry relative="1" as="geometry" />
        </mxCell>
        <mxCell id="NIhlScBV0QvWfO8qGJx1-60" value="Sim" style="edgeLabel;html=1;align=center;verticalAlign=middle;resizable=0;points=[];" parent="NIhlScBV0QvWfO8qGJx1-59" vertex="1" connectable="0">
          <mxGeometry x="-0.0937" relative="1" as="geometry">
            <mxPoint as="offset" />
          </mxGeometry>
        </mxCell>
        <mxCell id="NIhlScBV0QvWfO8qGJx1-62" style="edgeStyle=orthogonalEdgeStyle;rounded=0;orthogonalLoop=1;jettySize=auto;html=1;exitX=0.5;exitY=0;exitDx=0;exitDy=0;entryX=0.5;entryY=1;entryDx=0;entryDy=0;" parent="1" source="NIhlScBV0QvWfO8qGJx1-57" target="NIhlScBV0QvWfO8qGJx1-61" edge="1">
          <mxGeometry relative="1" as="geometry" />
        </mxCell>
        <mxCell id="NIhlScBV0QvWfO8qGJx1-64" value="Não" style="edgeLabel;html=1;align=center;verticalAlign=middle;resizable=0;points=[];" parent="NIhlScBV0QvWfO8qGJx1-62" vertex="1" connectable="0">
          <mxGeometry x="-0.511" y="-1" relative="1" as="geometry">
            <mxPoint as="offset" />
          </mxGeometry>
        </mxCell>
        <mxCell id="NIhlScBV0QvWfO8qGJx1-57" value="Dados possiveis?" style="rhombus;whiteSpace=wrap;html=1;fillColor=none;" parent="1" vertex="1">
          <mxGeometry x="565" y="460" width="110" height="100" as="geometry" />
        </mxCell>
        <mxCell id="KtPQNXZRIDVFI4fc9xsd-15" style="edgeStyle=orthogonalEdgeStyle;rounded=0;orthogonalLoop=1;jettySize=auto;html=1;exitX=0.5;exitY=0;exitDx=0;exitDy=0;entryX=0.5;entryY=0;entryDx=0;entryDy=0;" edge="1" parent="1" source="NIhlScBV0QvWfO8qGJx1-61" target="KtPQNXZRIDVFI4fc9xsd-2">
          <mxGeometry relative="1" as="geometry">
            <Array as="points">
              <mxPoint x="620" y="110" />
              <mxPoint x="195" y="110" />
            </Array>
          </mxGeometry>
        </mxCell>
        <mxCell id="NIhlScBV0QvWfO8qGJx1-61" value="Mensagem informando que o dados são repetidos ou invalidos" style="rounded=1;whiteSpace=wrap;html=1;fillColor=none;" parent="1" vertex="1">
          <mxGeometry x="560" y="145" width="120" height="60" as="geometry" />
        </mxCell>
        <mxCell id="KtPQNXZRIDVFI4fc9xsd-13" style="edgeStyle=orthogonalEdgeStyle;rounded=0;orthogonalLoop=1;jettySize=auto;html=1;exitX=0.5;exitY=1;exitDx=0;exitDy=0;entryX=0.5;entryY=0;entryDx=0;entryDy=0;" edge="1" parent="1" source="KtPQNXZRIDVFI4fc9xsd-1" target="NIhlScBV0QvWfO8qGJx1-12">
          <mxGeometry relative="1" as="geometry" />
        </mxCell>
        <mxCell id="KtPQNXZRIDVFI4fc9xsd-1" value="Prenchimento dos dados" style="rounded=1;whiteSpace=wrap;html=1;fillColor=none;" vertex="1" parent="1">
          <mxGeometry x="413.5" y="145" width="120" height="60" as="geometry" />
        </mxCell>
        <mxCell id="KtPQNXZRIDVFI4fc9xsd-6" style="edgeStyle=orthogonalEdgeStyle;rounded=0;orthogonalLoop=1;jettySize=auto;html=1;exitX=0.5;exitY=1;exitDx=0;exitDy=0;entryX=0.5;entryY=0;entryDx=0;entryDy=0;" edge="1" parent="1" source="KtPQNXZRIDVFI4fc9xsd-2" target="KtPQNXZRIDVFI4fc9xsd-3">
          <mxGeometry relative="1" as="geometry" />
        </mxCell>
        <mxCell id="KtPQNXZRIDVFI4fc9xsd-2" value="Prenchimento do número de celular" style="ellipse;whiteSpace=wrap;html=1;aspect=fixed;fillColor=none;" vertex="1" parent="1">
          <mxGeometry x="150" y="135" width="90" height="90" as="geometry" />
        </mxCell>
        <mxCell id="KtPQNXZRIDVFI4fc9xsd-7" style="edgeStyle=orthogonalEdgeStyle;rounded=0;orthogonalLoop=1;jettySize=auto;html=1;exitX=1;exitY=0;exitDx=0;exitDy=0;entryX=0.103;entryY=0.99;entryDx=0;entryDy=0;entryPerimeter=0;" edge="1" parent="1" source="KtPQNXZRIDVFI4fc9xsd-3" target="KtPQNXZRIDVFI4fc9xsd-5">
          <mxGeometry relative="1" as="geometry" />
        </mxCell>
        <mxCell id="KtPQNXZRIDVFI4fc9xsd-3" value="Enviar confirmação de número por SMS" style="rounded=1;whiteSpace=wrap;html=1;fillColor=none;" vertex="1" parent="1">
          <mxGeometry x="135" y="315" width="120" height="60" as="geometry" />
        </mxCell>
        <mxCell id="KtPQNXZRIDVFI4fc9xsd-9" style="edgeStyle=orthogonalEdgeStyle;rounded=0;orthogonalLoop=1;jettySize=auto;html=1;exitX=1;exitY=0.5;exitDx=0;exitDy=0;entryX=0.25;entryY=1;entryDx=0;entryDy=0;" edge="1" parent="1" source="KtPQNXZRIDVFI4fc9xsd-4" target="KtPQNXZRIDVFI4fc9xsd-1">
          <mxGeometry relative="1" as="geometry" />
        </mxCell>
        <mxCell id="KtPQNXZRIDVFI4fc9xsd-10" value="SIM" style="edgeLabel;html=1;align=center;verticalAlign=middle;resizable=0;points=[];" vertex="1" connectable="0" parent="KtPQNXZRIDVFI4fc9xsd-9">
          <mxGeometry x="-0.7404" y="-1" relative="1" as="geometry">
            <mxPoint as="offset" />
          </mxGeometry>
        </mxCell>
        <mxCell id="KtPQNXZRIDVFI4fc9xsd-11" style="edgeStyle=orthogonalEdgeStyle;rounded=0;orthogonalLoop=1;jettySize=auto;html=1;exitX=0.254;exitY=0.775;exitDx=0;exitDy=0;entryX=0.144;entryY=0.841;entryDx=0;entryDy=0;exitPerimeter=0;entryPerimeter=0;" edge="1" parent="1" source="KtPQNXZRIDVFI4fc9xsd-4" target="KtPQNXZRIDVFI4fc9xsd-2">
          <mxGeometry relative="1" as="geometry">
            <mxPoint x="306.88" y="323.2" as="sourcePoint" />
            <mxPoint x="148.18019484660525" y="210.0198051533947" as="targetPoint" />
            <Array as="points">
              <mxPoint x="307" y="410" />
              <mxPoint x="120" y="410" />
              <mxPoint x="120" y="210" />
              <mxPoint x="163" y="210" />
            </Array>
          </mxGeometry>
        </mxCell>
        <mxCell id="KtPQNXZRIDVFI4fc9xsd-12" value="NÃO" style="edgeLabel;html=1;align=center;verticalAlign=middle;resizable=0;points=[];" vertex="1" connectable="0" parent="KtPQNXZRIDVFI4fc9xsd-11">
          <mxGeometry x="-0.9114" y="-1" relative="1" as="geometry">
            <mxPoint as="offset" />
          </mxGeometry>
        </mxCell>
        <mxCell id="KtPQNXZRIDVFI4fc9xsd-4" value="Número confirmado?" style="rhombus;whiteSpace=wrap;html=1;fillColor=none;" vertex="1" parent="1">
          <mxGeometry x="286.88" y="305" width="93.12" height="85" as="geometry" />
        </mxCell>
        <mxCell id="KtPQNXZRIDVFI4fc9xsd-8" style="edgeStyle=orthogonalEdgeStyle;rounded=0;orthogonalLoop=1;jettySize=auto;html=1;exitX=0.5;exitY=1;exitDx=0;exitDy=0;entryX=0.5;entryY=0;entryDx=0;entryDy=0;" edge="1" parent="1" source="KtPQNXZRIDVFI4fc9xsd-5" target="KtPQNXZRIDVFI4fc9xsd-4">
          <mxGeometry relative="1" as="geometry" />
        </mxCell>
        <mxCell id="KtPQNXZRIDVFI4fc9xsd-5" value="Cola o SMS recebido" style="rounded=1;whiteSpace=wrap;html=1;fillColor=none;" vertex="1" parent="1">
          <mxGeometry x="273.44" y="145" width="120" height="60" as="geometry" />
        </mxCell>
        <mxCell id="KtPQNXZRIDVFI4fc9xsd-16" style="edgeStyle=orthogonalEdgeStyle;rounded=0;orthogonalLoop=1;jettySize=auto;html=1;exitX=0.5;exitY=1;exitDx=0;exitDy=0;" edge="1" parent="1" source="NIhlScBV0QvWfO8qGJx1-3" target="NIhlScBV0QvWfO8qGJx1-3">
          <mxGeometry relative="1" as="geometry" />
        </mxCell>
      </root>
    </mxGraphModel>
  </diagram>
</mxfile>
